<?xml version="1.0" encoding="UTF-8" standalone="no"?>
<!-- Generator: Adobe Illustrator 17.0.0, SVG Export Plug-In . SVG Version: 6.00 Build 0)  -->

<svg
   xmlns:dc="http://purl.org/dc/elements/1.1/"
   xmlns:cc="http://creativecommons.org/ns#"
   xmlns:rdf="http://www.w3.org/1999/02/22-rdf-syntax-ns#"
   xmlns:svg="http://www.w3.org/2000/svg"
   xmlns="http://www.w3.org/2000/svg"
   xmlns:sodipodi="http://sodipodi.sourceforge.net/DTD/sodipodi-0.dtd"
   xmlns:inkscape="http://www.inkscape.org/namespaces/inkscape"
   version="1.1"
   id="LOGO"
   x="0px"
   y="0px"
   width="354.59668"
   height="142.82666"
   viewBox="0 0 212.75801 85.695996"
   enable-background="new 0 0 992 1000"
   xml:space="preserve"
   sodipodi:docname="logo.svg"
   inkscape:version="0.92.1 r15371"><metadata
     id="metadata49"><rdf:RDF><cc:Work
         rdf:about=""><dc:format>image/svg+xml</dc:format><dc:type
           rdf:resource="http://purl.org/dc/dcmitype/StillImage" /><dc:title></dc:title></cc:Work></rdf:RDF></metadata><defs
     id="defs47" /><sodipodi:namedview
     pagecolor="#ffffff"
     bordercolor="#666666"
     borderopacity="1"
     objecttolerance="10"
     gridtolerance="10"
     guidetolerance="10"
     inkscape:pageopacity="0"
     inkscape:pageshadow="2"
     inkscape:window-width="1855"
     inkscape:window-height="1176"
     id="namedview45"
     showgrid="false"
     inkscape:zoom="3.957548"
     inkscape:cx="19.999157"
     inkscape:cy="110.26964"
     inkscape:window-x="249"
     inkscape:window-y="24"
     inkscape:window-maximized="1"
     inkscape:current-layer="LOGO"
     scale-x="0.6"
     fit-margin-top="0"
     fit-margin-left="0"
     fit-margin-right="0"
     fit-margin-bottom="0" /><g
     id="g42"
     transform="translate(-26.079,-26.4)"><g
       id="g12"><path
         d="m 26.079,30.746 c 0,-2.875 1.538,-4.346 4.413,-4.346 h 22.064 c 2.875,0 4.346,1.471 4.346,4.346 v 3.343 c 0,2.808 -1.471,4.345 -4.346,4.345 H 40.187 v 7.422 h 9.293 c 2.875,0 4.413,1.538 4.413,4.412 v 3.276 c 0,2.875 -1.538,4.346 -4.413,4.346 h -9.293 v 12.235 c 0,2.808 -1.471,4.346 -4.346,4.346 h -5.349 c -2.875,0 -4.413,-1.538 -4.413,-4.346 z"
         id="path2"
         inkscape:connector-curvature="0"
         style="fill:#00cccc" /><path
         d="m 61.315,30.746 c 0,-2.875 1.538,-4.346 4.413,-4.346 h 13.171 c 15.377,0 25.072,8.825 25.072,23.935 0,15.043 -9.695,24.136 -25.072,24.136 H 65.728 c -2.875,0 -4.413,-1.538 -4.413,-4.346 z m 17.116,31.691 c 6.953,0 10.965,-4.145 10.965,-12.101 0,-7.956 -4.279,-11.901 -10.965,-11.901 h -3.008 v 24.002 z"
         id="path4"
         inkscape:connector-curvature="0"
         style="fill:#00cccc" /><path
         d="m 118.414,29.943 c 0.803,-2.407 2.34,-3.543 4.948,-3.543 h 7.287 c 2.541,0 4.146,1.137 4.948,3.543 l 13.038,39.514 c 1.07,3.009 -0.402,5.015 -3.544,5.015 h -5.416 c -2.607,0 -4.145,-1.204 -4.947,-3.677 l -1.003,-4.68 h -13.573 l -1.003,4.68 c -0.669,2.474 -2.273,3.677 -4.814,3.677 h -5.416 c -3.142,0 -4.614,-2.006 -3.544,-5.015 z m 12.102,25.006 -1.471,-6.686 c -0.869,-3.276 -2.006,-8.892 -2.006,-8.892 h -0.134 c 0,0 -1.07,5.616 -1.939,8.892 l -1.605,6.686 z"
         id="path6"
         inkscape:connector-curvature="0"
         style="fill:#00cccc" /><path
         d="m 163.278,29.943 c 0.803,-2.407 2.34,-3.543 4.948,-3.543 h 7.287 c 2.541,0 4.145,1.137 4.948,3.543 l 13.038,39.514 c 1.07,3.009 -0.402,5.015 -3.544,5.015 h -5.416 c -2.607,0 -4.145,-1.204 -4.947,-3.677 l -1.003,-4.68 h -13.572 l -1.003,4.68 c -0.669,2.474 -2.273,3.677 -4.814,3.677 h -5.416 c -3.142,0 -4.613,-2.006 -3.543,-5.015 z m 12.101,25.006 -1.471,-6.686 c -0.869,-3.276 -2.006,-8.892 -2.006,-8.892 h -0.134 c 0,0 -1.07,5.616 -1.939,8.892 l -1.605,6.686 z"
         id="path8"
         inkscape:connector-curvature="0"
         style="fill:#00cccc" /><path
         d="m 208.142,29.943 c 0.803,-2.407 2.34,-3.543 4.948,-3.543 h 7.287 c 2.541,0 4.145,1.137 4.948,3.543 l 13.038,39.514 c 1.07,3.009 -0.402,5.015 -3.544,5.015 h -5.416 c -2.607,0 -4.145,-1.204 -4.947,-3.677 l -1.003,-4.68 H 209.88 l -1.003,4.68 c -0.669,2.474 -2.273,3.677 -4.814,3.677 h -5.416 c -3.142,0 -4.613,-2.006 -3.543,-5.015 z m 12.101,25.006 -1.471,-6.686 c -0.869,-3.276 -2.006,-8.892 -2.006,-8.892 h -0.134 c 0,0 -1.07,5.616 -1.939,8.892 l -1.605,6.686 z"
         id="path10"
         inkscape:connector-curvature="0"
         style="fill:#00cccc" /></g><g
       id="g40"><path
         d="m 35.421,87.8 h -8.073 c -0.846,0 -1.269,-0.461 -1.269,-1.269 v -0.769 c 0,-0.846 0.423,-1.268 1.269,-1.268 h 19.913 c 0.807,0 1.23,0.423 1.23,1.268 v 0.769 c 0,0.808 -0.423,1.269 -1.23,1.269 h -8.073 v 22.566 c 0,0.846 -0.462,1.269 -1.269,1.269 H 36.65 c -0.807,0 -1.23,-0.423 -1.23,-1.269 V 87.8 Z"
         id="path14"
         inkscape:connector-curvature="0"
         style="fill:#ff9900" /><path
         d="m 47.913,93.451 c 0,-0.846 0.461,-1.269 1.269,-1.269 h 1.076 c 0.846,0 1.269,0.423 1.269,1.269 v 2.23 c 0,0.807 -0.115,1.461 -0.115,1.461 h 0.077 c 0.846,-2.576 3.037,-5.113 5.959,-5.113 0.884,0 1.23,0.423 1.23,1.269 v 1.076 c 0,0.846 -0.5,1.269 -1.384,1.269 -3.806,0 -5.651,4.114 -5.651,7.957 v 6.766 c 0,0.846 -0.423,1.269 -1.269,1.269 h -1.192 c -0.808,0 -1.269,-0.423 -1.269,-1.269 z"
         id="path16"
         inkscape:connector-curvature="0"
         style="fill:#ff9900" /><path
         d="m 61.558,87.031 v -1.269 c 0,-0.846 0.423,-1.268 1.269,-1.268 h 1.307 c 0.807,0 1.268,0.423 1.268,1.268 v 1.269 c 0,0.807 -0.461,1.269 -1.268,1.269 h -1.307 c -0.846,0 -1.269,-0.462 -1.269,-1.269 z m 0.038,6.42 c 0,-0.846 0.461,-1.269 1.269,-1.269 h 1.192 c 0.846,0 1.269,0.423 1.269,1.269 v 16.915 c 0,0.846 -0.423,1.269 -1.269,1.269 h -1.192 c -0.808,0 -1.269,-0.423 -1.269,-1.269 z"
         id="path18"
         inkscape:connector-curvature="0"
         style="fill:#ff9900" /><path
         d="m 80.74,99.641 h 0.999 v -0.5 c 0,-3.191 -1.845,-4.268 -4.228,-4.268 -1.922,0 -3.499,0.73 -4.383,1.23 -0.73,0.346 -1.307,0.231 -1.73,-0.461 l -0.307,-0.538 c -0.384,-0.73 -0.269,-1.345 0.423,-1.73 1.153,-0.653 3.344,-1.653 6.304,-1.653 4.844,0 7.65,2.691 7.65,7.612 v 11.033 c 0,0.846 -0.461,1.269 -1.269,1.269 h -0.961 c -0.807,0 -1.268,-0.423 -1.268,-1.269 v -1.153 c 0,-0.73 0.115,-1.192 0.115,-1.192 h -0.077 c 0,0 -1.807,4.075 -6.343,4.075 -3.421,0 -6.535,-2.114 -6.535,-5.766 0,-6.036 7.573,-6.689 11.61,-6.689 z m -4.229,9.495 c 3.267,0 5.267,-3.306 5.267,-6.189 v -0.846 h -1 c -2.73,0 -7.881,0.231 -7.881,3.921 0,1.538 1.23,3.114 3.614,3.114 z"
         id="path20"
         inkscape:connector-curvature="0"
         style="fill:#ff9900" /><path
         d="m 90.579,85.763 c 0,-0.846 0.423,-1.268 1.269,-1.268 h 1.192 c 0.808,0 1.269,0.423 1.269,1.268 v 20.106 c 0,2.191 0.961,2.499 1.768,2.576 0.577,0.077 1,0.384 1,1.115 v 0.922 c 0,0.808 -0.346,1.307 -1.307,1.307 -2.076,0 -5.19,-0.577 -5.19,-5.459 V 85.763 Z"
         id="path22"
         inkscape:connector-curvature="0"
         style="fill:#ff9900" /><path
         d="m 99.612,108.252 0.384,-0.538 c 0.5,-0.654 1,-0.692 1.769,-0.269 0.884,0.576 2.499,1.576 4.767,1.576 1.922,0 3.306,-0.922 3.306,-2.576 0,-3.806 -10.033,-2.537 -10.033,-9.111 0,-3.69 3.229,-5.612 7.035,-5.612 2.691,0 4.459,0.922 5.382,1.499 0.692,0.346 0.808,1 0.423,1.691 l -0.346,0.576 c -0.384,0.692 -0.961,0.769 -1.691,0.423 -0.807,-0.461 -2.114,-1.115 -3.96,-1.115 -1.845,0 -3.267,0.807 -3.267,2.46 0,3.882 10.033,2.499 10.033,9.111 0,3.306 -2.806,5.728 -6.997,5.728 -3.229,0 -5.459,-1.307 -6.535,-2.114 -0.655,-0.422 -0.693,-1.076 -0.27,-1.729 z"
         id="path24"
         inkscape:connector-curvature="0"
         style="fill:#ff9900" /><path
         d="m 121.599,87.8 h -8.073 c -0.846,0 -1.269,-0.461 -1.269,-1.269 v -0.769 c 0,-0.846 0.423,-1.268 1.269,-1.268 h 19.913 c 0.807,0 1.23,0.423 1.23,1.268 v 0.769 c 0,0.808 -0.423,1.269 -1.23,1.269 h -8.073 v 22.566 c 0,0.846 -0.462,1.269 -1.269,1.269 h -1.269 c -0.807,0 -1.23,-0.423 -1.23,-1.269 V 87.8 Z"
         id="path26"
         inkscape:connector-curvature="0"
         style="fill:#ff3333" /><path
         d="m 134.091,93.451 c 0,-0.846 0.461,-1.269 1.269,-1.269 h 1.076 c 0.846,0 1.269,0.423 1.269,1.269 v 2.23 c 0,0.807 -0.115,1.461 -0.115,1.461 h 0.077 c 0.846,-2.576 3.037,-5.113 5.959,-5.113 0.884,0 1.23,0.423 1.23,1.269 v 1.076 c 0,0.846 -0.5,1.269 -1.384,1.269 -3.806,0 -5.651,4.114 -5.651,7.957 v 6.766 c 0,0.846 -0.423,1.269 -1.269,1.269 h -1.192 c -0.808,0 -1.269,-0.423 -1.269,-1.269 z"
         id="path28"
         inkscape:connector-curvature="0"
         style="fill:#ff3333" /><path
         d="m 157.617,99.641 h 0.999 v -0.5 c 0,-3.191 -1.845,-4.268 -4.228,-4.268 -1.922,0 -3.499,0.73 -4.383,1.23 -0.73,0.346 -1.307,0.231 -1.729,-0.461 l -0.308,-0.538 c -0.384,-0.73 -0.269,-1.345 0.423,-1.73 1.153,-0.653 3.344,-1.653 6.304,-1.653 4.844,0 7.65,2.691 7.65,7.612 v 11.033 c 0,0.846 -0.461,1.269 -1.269,1.269 h -0.961 c -0.807,0 -1.268,-0.423 -1.268,-1.269 v -1.153 c 0,-0.73 0.115,-1.192 0.115,-1.192 h -0.077 c 0,0 -1.807,4.075 -6.343,4.075 -3.421,0 -6.535,-2.114 -6.535,-5.766 0,-6.036 7.573,-6.689 11.61,-6.689 z m -4.229,9.495 c 3.267,0 5.267,-3.306 5.267,-6.189 v -0.846 h -1 c -2.73,0 -7.881,0.231 -7.881,3.921 0,1.538 1.23,3.114 3.614,3.114 z"
         id="path30"
         inkscape:connector-curvature="0"
         style="fill:#ff3333" /><path
         d="m 176.566,91.721 c 3.267,0 5.382,1.269 6.42,2.076 0.654,0.423 0.692,1.076 0.231,1.73 l -0.384,0.576 c -0.461,0.692 -1,0.73 -1.73,0.308 -0.807,-0.577 -2.306,-1.461 -4.344,-1.461 -3.922,0 -6.766,2.922 -6.766,6.919 0,3.96 2.845,6.997 6.843,6.997 2.345,0 4.036,-1.076 4.959,-1.768 0.692,-0.461 1.268,-0.384 1.729,0.346 l 0.308,0.576 c 0.384,0.654 0.269,1.269 -0.346,1.692 -1.076,0.884 -3.421,2.383 -6.92,2.383 -6.112,0 -10.38,-4.344 -10.38,-10.187 0.001,-5.766 4.306,-10.187 10.38,-10.187 z"
         id="path32"
         inkscape:connector-curvature="0"
         style="fill:#ff3333" /><path
         d="m 187.905,85.763 c 0,-0.846 0.423,-1.268 1.268,-1.268 h 1.192 c 0.807,0 1.23,0.423 1.23,1.268 v 13.532 h 2.806 l 4.729,-6.304 c 0.346,-0.577 0.807,-0.808 1.499,-0.808 h 1.423 c 1.038,0 1.384,0.692 0.769,1.538 l -5.382,7.035 v 0.077 l 6.228,9.264 c 0.538,0.884 0.192,1.538 -0.846,1.538 h -1.538 c -0.692,0 -1.153,-0.269 -1.499,-0.884 l -5.305,-8.227 h -2.883 v 7.842 c 0,0.846 -0.423,1.269 -1.23,1.269 h -1.192 c -0.846,0 -1.268,-0.423 -1.268,-1.269 V 85.763 Z"
         id="path34"
         inkscape:connector-curvature="0"
         style="fill:#ff3333" /><path
         d="m 215.62,91.721 c 5.382,0 8.381,3.844 8.381,9.265 0,0.692 -0.538,1.307 -1.307,1.307 H 209.7 c 0.231,4.229 3.268,6.573 6.727,6.573 2.114,0 3.768,-0.884 4.652,-1.537 0.73,-0.384 1.307,-0.307 1.73,0.423 l 0.346,0.576 c 0.384,0.654 0.269,1.307 -0.384,1.691 -1.153,0.808 -3.46,2.076 -6.574,2.076 -6.112,0 -10.303,-4.421 -10.303,-10.187 0,-6.189 4.19,-10.187 9.726,-10.187 z m 4.651,8.112 c -0.115,-3.421 -2.153,-5.19 -4.728,-5.19 -2.845,0 -5.151,1.922 -5.69,5.19 z"
         id="path36"
         inkscape:connector-curvature="0"
         style="fill:#ff3333" /><path
         d="m 228.072,93.451 c 0,-0.846 0.461,-1.269 1.269,-1.269 h 1.076 c 0.846,0 1.269,0.423 1.269,1.269 v 2.23 c 0,0.807 -0.115,1.461 -0.115,1.461 h 0.077 c 0.846,-2.576 3.037,-5.113 5.959,-5.113 0.884,0 1.23,0.423 1.23,1.269 v 1.076 c 0,0.846 -0.5,1.269 -1.384,1.269 -3.806,0 -5.651,4.114 -5.651,7.957 v 6.766 c 0,0.846 -0.423,1.269 -1.269,1.269 h -1.192 c -0.808,0 -1.269,-0.423 -1.269,-1.269 z"
         id="path38"
         inkscape:connector-curvature="0"
         style="fill:#ff3333" /></g></g></svg>