<?xml version="1.0" encoding="utf-8"?>
<!-- Generator: Adobe Illustrator 21.0.0, SVG Export Plug-In . SVG Version: 6.00 Build 0)  -->
<svg version="1.1" xmlns="http://www.w3.org/2000/svg" xmlns:xlink="http://www.w3.org/1999/xlink" x="0px" y="0px"
	 viewBox="0 0 26.6 9.2" style="enable-background:new 0 0 26.6 9.2;" xml:space="preserve">
<style type="text/css">
	.st0{fill:#FFFFFF;}
	.st1{fill:none;stroke:#FFFFFF;stroke-miterlimit:10;}
	.st2{display:none;}
	.st3{display:inline;fill:#E3E1E0;}
</style>
<g id="Layer_1">
	<g>
		<g>
			<path class="st0" d="M21,2.5c0.1,0.1,0.3,0.2,0.4,0.3C21.2,2.7,21.1,2.6,21,2.5z"/>
			<path class="st0" d="M18.2,7.6l-4.9,0l0-5.9l4.9,0c0.3,0,0.7,0,1,0.1c-0.3-0.1-0.6-0.1-1-0.1l-9.8,0c-2.2,0-4,1.3-4,3
				c0,1.6,1.8,3,4,3L18.2,7.6c1.1,0,2.1-0.3,2.8-0.8C20.2,7.3,19.3,7.6,18.2,7.6z"/>
			<path class="st0" d="M19.2,1.7C19.5,1.8,19.8,1.9,20,2C19.8,1.9,19.5,1.8,19.2,1.7z"/>
			<path class="st0" d="M20.2,2c0.2,0.1,0.4,0.2,0.5,0.3C20.6,2.2,20.4,2.1,20.2,2z"/>
		</g>
		<path id="rect3270_6_" class="st1" d="M22.2,4.6L22.2,4.6c0,1.6-1.8,3-4,3l-9.8,0c-2.2,0-4-1.3-4-3l0,0c0-1.6,1.8-3,4-3l9.8,0
			C20.4,1.6,22.2,3,22.2,4.6z"/>
	</g>
</g>
<g id="Layer_2" class="st2">
	<rect class="st3" width="26.6" height="9.2"/>
</g>
</svg>
