<?xml version="1.0" encoding="utf-8"?>
<!-- Generator: Adobe Illustrator 21.0.0, SVG Export Plug-In . SVG Version: 6.00 Build 0)  -->
<svg version="1.1" id="Layer_1" xmlns="http://www.w3.org/2000/svg" xmlns:xlink="http://www.w3.org/1999/xlink" x="0px" y="0px"
	 viewBox="0 0 23.5 24.7" style="enable-background:new 0 0 23.5 24.7;" xml:space="preserve">
<style type="text/css">
	.st0{fill:#FFFFFF;}
</style>
<path class="st0" d="M5.8,17l2.1,2.1c0.6,0.6,1.5,0.6,2.1,0l7.1-7.1c0.6-0.6,0.6-1.5,0-2.1L15,7.8c-0.6-0.6-1.5-0.6-2.1,0l-7.1,7.1
	C5.2,15.5,5.2,16.4,5.8,17z M10.7,11.3l2.1-2.1c0.6-0.6,1.5-0.6,2.1,0l0.7,0.7c0.6,0.6,0.6,1.5,0,2.1l-2.1,2.1
	c-0.6,0.6-1.5,0.6-2.1,0l-0.7-0.7C10.1,12.9,10.1,11.9,10.7,11.3z"/>
<path id="rect3185_3_" class="st0" d="M14,13.9l-3.1-3.1L7,14.7c-0.6,0.6-0.5,1.6,0.1,2.2l0.8,0.8c0.7,0.7,1.7,0.7,2.2,0.1L14,13.9z
	"/>
<rect id="rect3196_3_" x="2.6" y="19.3" transform="matrix(0.7071 -0.7071 0.7071 0.7071 -12.5326 9.3872)" class="st0" width="5" height="1"/>
<rect id="rect3198_3_" x="12" y="8.4" transform="matrix(0.7071 -0.7071 0.7071 0.7071 -1.5725 13.9271)" class="st0" width="8" height="1"/>
<path id="rect3200_3_" class="st0" d="M21,8.9L21,8.9c-0.2,0.2-0.5,0.2-0.7,0L16,4.6c-0.2-0.2-0.2-0.5,0-0.7l0,0
	c0.2-0.2,0.5-0.2,0.7,0L21,8.2C21.2,8.3,21.2,8.7,21,8.9z"/>
<path id="rect3202_3_" class="st0" d="M14.6,13.8L14.6,13.8c-0.2,0.2-0.5,0.2-0.7,0L11.1,11c-0.2-0.2-0.2-0.5,0-0.7l0,0
	c0.2-0.2,0.5-0.2,0.7,0l2.8,2.8C14.8,13.3,14.8,13.6,14.6,13.8z"/>
</svg>
